<?xml version="1.0" encoding="UTF-8" standalone="no"?><svg xmlns="http://www.w3.org/2000/svg" xmlns:xlink="http://www.w3.org/1999/xlink" contentScriptType="application/ecmascript" contentStyleType="text/css" height="396px" preserveAspectRatio="none" style="width:1760px;height:396px;background:#777777;" version="1.1" viewBox="0 0 1760 396" width="1760px" zoomAndPan="magnify"><defs><filter height="300%" id="fuymq1y6f2qip" width="300%" x="-1" y="-1"><feGaussianBlur result="blurOut" stdDeviation="2.0"/><feColorMatrix in="blurOut" result="blurOut2" type="matrix" values="0 0 0 0 0 0 0 0 0 0 0 0 0 0 0 0 0 0 .4 0"/><feOffset dx="4.0" dy="4.0" in="blurOut2" result="blurOut3"/><feBlend in="SourceGraphic" in2="blurOut3" mode="normal"/></filter></defs><g><!--MD5=[4e13963c9dc916a21a8436ef39422b32]
class Component--><rect codeLine="4" fill="#2E2E2E" filter="url(#fuymq1y6f2qip)" height="67.9102" id="Component" style="stroke:#1B1B1B;stroke-width:1.5;" width="419" x="754.5" y="7"/><ellipse cx="928" cy="20" fill="#B4A7E5" rx="8" ry="8" style="stroke:#1B1B1B;stroke-width:1.0;"/><path d="M930.3442,24.5 L925.6606,24.5 L925.6606,23.082 L926.9712,23.082 L926.9712,17.9204 L925.6606,17.9204 L925.6606,16.5024 L930.3442,16.5024 L930.3442,17.9204 L929.0337,17.9204 L929.0337,23.082 L930.3442,23.082 Z " fill="#000000"/><text fill="#FFFFFF" font-family="Verdana" font-size="11" font-style="italic" lengthAdjust="spacing" textLength="65" x="944" y="24.3748">Component</text><line style="stroke:#1B1B1B;stroke-width:1.5;" x1="755.5" x2="1172.5" y1="33" y2="33"/><line style="stroke:#1B1B1B;stroke-width:1.5;" x1="755.5" x2="1172.5" y1="41" y2="41"/><ellipse cx="765.5" cy="52" fill="#84BE84" rx="3" ry="3" style="stroke:#038048;stroke-width:1.0;"/><text fill="#AAAAAA" font-family="sans-serif" font-size="11" lengthAdjust="spacing" textLength="396" x="771.5" y="55.6348">attachTo(parent: HTMLElement, position?: InsertPosition | undefined): void</text><ellipse cx="765.5" cy="64.9551" fill="#84BE84" rx="3" ry="3" style="stroke:#038048;stroke-width:1.0;"/><text fill="#AAAAAA" font-family="sans-serif" font-size="11" lengthAdjust="spacing" textLength="218" x="771.5" y="68.5898">removeFrom(parent: HTMLElement): void</text><!--MD5=[784d533083758286c885e86b9fe3090e]
class BaseComponent--><rect codeLine="8" fill="#2E2E2E" filter="url(#fuymq1y6f2qip)" height="80.8652" id="BaseComponent" style="stroke:#1B1B1B;stroke-width:1.5;" width="355" x="904.5" y="135"/><ellipse cx="966" cy="148" fill="#BB6600" rx="8" ry="8" style="stroke:#1B1B1B;stroke-width:1.0;"/><path d="M966.1353,152.4058 Q965.2437,152.4058 964.489,152.1426 Q963.7344,151.8794 963.1919,151.3584 Q962.6494,150.8374 962.3513,150.0586 Q962.0532,149.2798 962.0532,148.2593 Q962.0532,147.3086 962.3379,146.5352 Q962.6226,145.7617 963.165,145.2085 Q963.686,144.6768 964.4568,144.3867 Q965.2275,144.0967 966.1406,144.0967 Q966.6455,144.0967 967.051,144.1531 Q967.4565,144.2095 967.8003,144.3008 Q968.1602,144.4028 968.4529,144.5291 Q968.7456,144.6553 968.9658,144.7627 L968.9658,146.7017 L968.7295,146.7017 Q968.5791,146.5728 968.3508,146.3955 Q968.1226,146.2183 967.8325,146.0464 Q967.5371,145.8745 967.1934,145.7563 Q966.8496,145.6382 966.4575,145.6382 Q966.0225,145.6382 965.6304,145.7751 Q965.2383,145.9121 964.9053,146.229 Q964.5884,146.5352 964.3923,147.04 Q964.1963,147.5449 964.1963,148.2646 Q964.1963,149.0166 964.4084,149.5215 Q964.6206,150.0264 964.9429,150.3164 Q965.2705,150.6118 965.6733,150.738 Q966.0762,150.8643 966.4683,150.8643 Q966.8442,150.8643 967.2122,150.7515 Q967.5801,150.6387 967.8916,150.4453 Q968.1548,150.2896 968.3804,150.1123 Q968.606,149.9351 968.751,149.8062 L968.9658,149.8062 L968.9658,151.7183 Q968.665,151.8525 968.3911,151.9707 Q968.1172,152.0889 967.8164,152.1748 Q967.4243,152.2876 967.0806,152.3467 Q966.7368,152.4058 966.1353,152.4058 Z " fill="#000000"/><text fill="#FFFFFF" font-family="Verdana" font-size="11" lengthAdjust="spacing" textLength="93" x="982" y="152.3748">BaseComponent</text><rect fill="#777777" height="14.9551" style="stroke:#AAAAAA;stroke-width:1.0;stroke-dasharray:2.0,2.0;" width="130" x="1132.5" y="132"/><text fill="#AAAAAA" font-family="sans-serif" font-size="11" font-style="italic" lengthAdjust="spacing" textLength="128" x="1133.5" y="143.6348">T extends HTMLElement</text><line style="stroke:#1B1B1B;stroke-width:1.5;" x1="905.5" x2="1258.5" y1="161" y2="161"/><polygon fill="none" points="915.5,167,919.5,171,915.5,175,911.5,171" style="stroke:#B38D22;stroke-width:1.0;"/><text fill="#AAAAAA" font-family="sans-serif" font-size="11" lengthAdjust="spacing" textLength="55" x="921.5" y="175.6348">element: T</text><line style="stroke:#1B1B1B;stroke-width:1.5;" x1="905.5" x2="1258.5" y1="181.9551" y2="181.9551"/><ellipse cx="915.5" cy="192.9551" fill="#84BE84" rx="3" ry="3" style="stroke:#038048;stroke-width:1.0;"/><text fill="#AAAAAA" font-family="sans-serif" font-size="11" lengthAdjust="spacing" textLength="332" x="921.5" y="196.5898">attachTo(parent: HTMLElement, position?: InsertPosition): void</text><ellipse cx="915.5" cy="205.9102" fill="#84BE84" rx="3" ry="3" style="stroke:#038048;stroke-width:1.0;"/><text fill="#AAAAAA" font-family="sans-serif" font-size="11" lengthAdjust="spacing" textLength="218" x="921.5" y="209.5449">removeFrom(parent: HTMLElement): void</text><!--MD5=[a1241d7a590723342f0d1bbfba4d9beb]
class Composable--><rect codeLine="13" fill="#2E2E2E" filter="url(#fuymq1y6f2qip)" height="54.9551" id="Composable" style="stroke:#1B1B1B;stroke-width:1.5;" width="203" x="399.5" y="13.5"/><ellipse cx="462.5" cy="26.5" fill="#B4A7E5" rx="8" ry="8" style="stroke:#1B1B1B;stroke-width:1.0;"/><path d="M464.8442,31 L460.1606,31 L460.1606,29.582 L461.4712,29.582 L461.4712,24.4204 L460.1606,24.4204 L460.1606,23.0024 L464.8442,23.0024 L464.8442,24.4204 L463.5337,24.4204 L463.5337,29.582 L464.8442,29.582 Z " fill="#000000"/><text fill="#FFFFFF" font-family="Verdana" font-size="11" font-style="italic" lengthAdjust="spacing" textLength="70" x="478.5" y="30.8748">Composable</text><line style="stroke:#1B1B1B;stroke-width:1.5;" x1="400.5" x2="601.5" y1="39.5" y2="39.5"/><line style="stroke:#1B1B1B;stroke-width:1.5;" x1="400.5" x2="601.5" y1="47.5" y2="47.5"/><ellipse cx="410.5" cy="58.5" fill="#84BE84" rx="3" ry="3" style="stroke:#038048;stroke-width:1.0;"/><text fill="#AAAAAA" font-family="sans-serif" font-size="11" lengthAdjust="spacing" textLength="180" x="416.5" y="62.1348">addChild(child: Component): void</text><!--MD5=[d6457e46ee0770f05773825f7ff7571c]
class SectionContainer--><rect codeLine="16" fill="#2E2E2E" filter="url(#fuymq1y6f2qip)" height="54.9551" id="SectionContainer" style="stroke:#1B1B1B;stroke-width:1.5;" width="300" x="569" y="148"/><ellipse cx="667" cy="161" fill="#B4A7E5" rx="8" ry="8" style="stroke:#1B1B1B;stroke-width:1.0;"/><path d="M669.3442,165.5 L664.6606,165.5 L664.6606,164.082 L665.9712,164.082 L665.9712,158.9204 L664.6606,158.9204 L664.6606,157.5024 L669.3442,157.5024 L669.3442,158.9204 L668.0337,158.9204 L668.0337,164.082 L669.3442,164.082 Z " fill="#000000"/><text fill="#FFFFFF" font-family="Verdana" font-size="11" font-style="italic" lengthAdjust="spacing" textLength="97" x="683" y="165.3748">SectionContainer</text><line style="stroke:#1B1B1B;stroke-width:1.5;" x1="570" x2="868" y1="174" y2="174"/><line style="stroke:#1B1B1B;stroke-width:1.5;" x1="570" x2="868" y1="182" y2="182"/><ellipse cx="580" cy="193" fill="#84BE84" rx="3" ry="3" style="stroke:#038048;stroke-width:1.0;"/><text fill="#AAAAAA" font-family="sans-serif" font-size="11" lengthAdjust="spacing" textLength="277" x="586" y="196.6348">setOnCloseListener(listener: OnCloseListener): void</text><!--MD5=[47c0a5a25632895b75fd694587da7eaa]
class PageItemComponent--><rect codeLine="19" fill="#2E2E2E" filter="url(#fuymq1y6f2qip)" height="80.8652" id="PageItemComponent" style="stroke:#1B1B1B;stroke-width:1.5;" width="300" x="687" y="289"/><ellipse cx="773.5" cy="302" fill="#BB6600" rx="8" ry="8" style="stroke:#1B1B1B;stroke-width:1.0;"/><path d="M773.6353,306.4058 Q772.7437,306.4058 771.989,306.1426 Q771.2344,305.8794 770.6919,305.3584 Q770.1494,304.8374 769.8513,304.0586 Q769.5532,303.2798 769.5532,302.2593 Q769.5532,301.3086 769.8379,300.5352 Q770.1226,299.7617 770.665,299.2085 Q771.186,298.6768 771.9568,298.3867 Q772.7275,298.0967 773.6406,298.0967 Q774.1455,298.0967 774.551,298.1531 Q774.9565,298.2095 775.3003,298.3008 Q775.6602,298.4028 775.9529,298.5291 Q776.2456,298.6553 776.4658,298.7627 L776.4658,300.7017 L776.2295,300.7017 Q776.0791,300.5728 775.8508,300.3955 Q775.6226,300.2183 775.3325,300.0464 Q775.0371,299.8745 774.6934,299.7563 Q774.3496,299.6382 773.9575,299.6382 Q773.5225,299.6382 773.1304,299.7751 Q772.7383,299.9121 772.4053,300.229 Q772.0884,300.5352 771.8923,301.04 Q771.6963,301.5449 771.6963,302.2646 Q771.6963,303.0166 771.9084,303.5215 Q772.1206,304.0264 772.4429,304.3164 Q772.7705,304.6118 773.1733,304.738 Q773.5762,304.8643 773.9683,304.8643 Q774.3442,304.8643 774.7122,304.7515 Q775.0801,304.6387 775.3916,304.4453 Q775.6548,304.2896 775.8804,304.1123 Q776.106,303.9351 776.251,303.8062 L776.4658,303.8062 L776.4658,305.7183 Q776.165,305.8525 775.8911,305.9707 Q775.6172,306.0889 775.3164,306.1748 Q774.9243,306.2876 774.5806,306.3467 Q774.2368,306.4058 773.6353,306.4058 Z " fill="#000000"/><text fill="#FFFFFF" font-family="Verdana" font-size="11" lengthAdjust="spacing" textLength="120" x="789.5" y="306.3748">PageItemComponent</text><line style="stroke:#1B1B1B;stroke-width:1.5;" x1="688" x2="986" y1="315" y2="315"/><rect fill="none" height="6" style="stroke:#C82930;stroke-width:1.0;" width="6" x="695" y="323"/><text fill="#AAAAAA" font-family="sans-serif" font-size="11" lengthAdjust="spacing" textLength="235" x="704" y="329.6348">closeListener?: OnCloseListener | undefined</text><line style="stroke:#1B1B1B;stroke-width:1.5;" x1="688" x2="986" y1="335.9551" y2="335.9551"/><ellipse cx="698" cy="346.9551" fill="#84BE84" rx="3" ry="3" style="stroke:#038048;stroke-width:1.0;"/><text fill="#AAAAAA" font-family="sans-serif" font-size="11" lengthAdjust="spacing" textLength="180" x="704" y="350.5898">addChild(child: Component): void</text><ellipse cx="698" cy="359.9102" fill="#84BE84" rx="3" ry="3" style="stroke:#038048;stroke-width:1.0;"/><text fill="#AAAAAA" font-family="sans-serif" font-size="11" lengthAdjust="spacing" textLength="277" x="704" y="363.5449">setOnCloseListener(listener: OnCloseListener): void</text><!--MD5=[002e8e2bfd01649225626de164f62fd3]
class PageComponent--><rect codeLine="24" fill="#2E2E2E" filter="url(#fuymq1y6f2qip)" height="67.9102" id="PageComponent" style="stroke:#1B1B1B;stroke-width:1.5;" width="302" x="350" y="295.5"/><ellipse cx="451" cy="308.5" fill="#BB6600" rx="8" ry="8" style="stroke:#1B1B1B;stroke-width:1.0;"/><path d="M451.1353,312.9058 Q450.2437,312.9058 449.489,312.6426 Q448.7344,312.3794 448.1919,311.8584 Q447.6494,311.3374 447.3513,310.5586 Q447.0532,309.7798 447.0532,308.7593 Q447.0532,307.8086 447.3379,307.0352 Q447.6226,306.2617 448.165,305.7085 Q448.686,305.1768 449.4568,304.8867 Q450.2275,304.5967 451.1406,304.5967 Q451.6455,304.5967 452.051,304.6531 Q452.4565,304.7095 452.8003,304.8008 Q453.1602,304.9028 453.4529,305.0291 Q453.7456,305.1553 453.9658,305.2627 L453.9658,307.2017 L453.7295,307.2017 Q453.5791,307.0728 453.3508,306.8955 Q453.1226,306.7183 452.8325,306.5464 Q452.5371,306.3745 452.1934,306.2563 Q451.8496,306.1382 451.4575,306.1382 Q451.0225,306.1382 450.6304,306.2751 Q450.2383,306.4121 449.9053,306.729 Q449.5884,307.0352 449.3923,307.54 Q449.1963,308.0449 449.1963,308.7646 Q449.1963,309.5166 449.4084,310.0215 Q449.6206,310.5264 449.9429,310.8164 Q450.2705,311.1118 450.6733,311.238 Q451.0762,311.3643 451.4683,311.3643 Q451.8442,311.3643 452.2122,311.2515 Q452.5801,311.1387 452.8916,310.9453 Q453.1548,310.7896 453.3804,310.6123 Q453.606,310.4351 453.751,310.3062 L453.9658,310.3062 L453.9658,312.2183 Q453.665,312.3525 453.3911,312.4707 Q453.1172,312.5889 452.8164,312.6748 Q452.4243,312.7876 452.0806,312.8467 Q451.7368,312.9058 451.1353,312.9058 Z " fill="#000000"/><text fill="#FFFFFF" font-family="Verdana" font-size="11" lengthAdjust="spacing" textLength="93" x="467" y="312.8748">PageComponent</text><line style="stroke:#1B1B1B;stroke-width:1.5;" x1="351" x2="651" y1="321.5" y2="321.5"/><rect fill="none" height="6" style="stroke:#C82930;stroke-width:1.0;" width="6" x="358" y="329.5"/><text fill="#AAAAAA" font-family="sans-serif" font-size="11" lengthAdjust="spacing" textLength="279" x="367" y="336.1348">pageItemConstructor: SectionContainerConstructor</text><line style="stroke:#1B1B1B;stroke-width:1.5;" x1="351" x2="651" y1="342.4551" y2="342.4551"/><ellipse cx="361" cy="353.4551" fill="#84BE84" rx="3" ry="3" style="stroke:#038048;stroke-width:1.0;"/><text fill="#AAAAAA" font-family="sans-serif" font-size="11" lengthAdjust="spacing" textLength="193" x="367" y="357.0898">addChild(section: Component): void</text><!--MD5=[9992ecd7fe6c5aef10592552f8c98f1c]
class InputDialog--><rect codeLine="28" fill="#2E2E2E" filter="url(#fuymq1y6f2qip)" height="106.7754" id="InputDialog" style="stroke:#1B1B1B;stroke-width:1.5;" width="308" x="7" y="276"/><ellipse cx="125" cy="289" fill="#BB6600" rx="8" ry="8" style="stroke:#1B1B1B;stroke-width:1.0;"/><path d="M125.1353,293.4058 Q124.2437,293.4058 123.489,293.1426 Q122.7344,292.8794 122.1919,292.3584 Q121.6494,291.8374 121.3513,291.0586 Q121.0532,290.2798 121.0532,289.2593 Q121.0532,288.3086 121.3379,287.5352 Q121.6226,286.7617 122.165,286.2085 Q122.686,285.6768 123.4568,285.3867 Q124.2275,285.0967 125.1406,285.0967 Q125.6455,285.0967 126.051,285.1531 Q126.4565,285.2095 126.8003,285.3008 Q127.1602,285.4028 127.4529,285.5291 Q127.7456,285.6553 127.9658,285.7627 L127.9658,287.7017 L127.7295,287.7017 Q127.5791,287.5728 127.3508,287.3955 Q127.1226,287.2183 126.8325,287.0464 Q126.5371,286.8745 126.1934,286.7563 Q125.8496,286.6382 125.4575,286.6382 Q125.0225,286.6382 124.6304,286.7751 Q124.2383,286.9121 123.9053,287.229 Q123.5884,287.5352 123.3923,288.04 Q123.1963,288.5449 123.1963,289.2646 Q123.1963,290.0166 123.4084,290.5215 Q123.6206,291.0264 123.9429,291.3164 Q124.2705,291.6118 124.6733,291.738 Q125.0762,291.8643 125.4683,291.8643 Q125.8442,291.8643 126.2122,291.7515 Q126.5801,291.6387 126.8916,291.4453 Q127.1548,291.2896 127.3804,291.1123 Q127.606,290.9351 127.751,290.8062 L127.9658,290.8062 L127.9658,292.7183 Q127.665,292.8525 127.3911,292.9707 Q127.1172,293.0889 126.8164,293.1748 Q126.4243,293.2876 126.0806,293.3467 Q125.7368,293.4058 125.1353,293.4058 Z " fill="#000000"/><text fill="#FFFFFF" font-family="Verdana" font-size="11" lengthAdjust="spacing" textLength="65" x="141" y="293.3748">InputDialog</text><line style="stroke:#1B1B1B;stroke-width:1.5;" x1="8" x2="314" y1="302" y2="302"/><ellipse cx="18" cy="313" fill="none" rx="3" ry="3" style="stroke:#038048;stroke-width:1.0;"/><text fill="#AAAAAA" font-family="sans-serif" font-size="11" lengthAdjust="spacing" textLength="235" x="24" y="316.6348">closeListener?: OnCloseListener | undefined</text><ellipse cx="18" cy="325.9551" fill="none" rx="3" ry="3" style="stroke:#038048;stroke-width:1.0;"/><text fill="#AAAAAA" font-family="sans-serif" font-size="11" lengthAdjust="spacing" textLength="251" x="24" y="329.5898">submitListener?: OnSubmitListener | undefined</text><line style="stroke:#1B1B1B;stroke-width:1.5;" x1="8" x2="314" y1="335.9102" y2="335.9102"/><ellipse cx="18" cy="346.9102" fill="#84BE84" rx="3" ry="3" style="stroke:#038048;stroke-width:1.0;"/><text fill="#AAAAAA" font-family="sans-serif" font-size="11" lengthAdjust="spacing" textLength="271" x="24" y="350.5449">setOnCloseListenr(listener: OnCloseListener): void</text><ellipse cx="18" cy="359.8652" fill="#84BE84" rx="3" ry="3" style="stroke:#038048;stroke-width:1.0;"/><text fill="#AAAAAA" font-family="sans-serif" font-size="11" lengthAdjust="spacing" textLength="285" x="24" y="363.5">setOnSubmitListenr(listener: OnSubmitListener): void</text><ellipse cx="18" cy="372.8203" fill="#84BE84" rx="3" ry="3" style="stroke:#038048;stroke-width:1.0;"/><text fill="#AAAAAA" font-family="sans-serif" font-size="11" lengthAdjust="spacing" textLength="180" x="24" y="376.4551">addChild(child: Component): void</text><!--MD5=[5e732eea2472c00750f31206498f0d23]
class VideoComponent--><rect codeLine="35" fill="#2E2E2E" filter="url(#fuymq1y6f2qip)" height="54.9551" id="VideoComponent" style="stroke:#1B1B1B;stroke-width:1.5;" width="254" x="1492" y="302"/><ellipse cx="1567" cy="315" fill="#BB6600" rx="8" ry="8" style="stroke:#1B1B1B;stroke-width:1.0;"/><path d="M1567.1353,319.4058 Q1566.2437,319.4058 1565.489,319.1426 Q1564.7344,318.8794 1564.1919,318.3584 Q1563.6494,317.8374 1563.3513,317.0586 Q1563.0532,316.2798 1563.0532,315.2593 Q1563.0532,314.3086 1563.3379,313.5352 Q1563.6226,312.7617 1564.165,312.2085 Q1564.686,311.6768 1565.4568,311.3867 Q1566.2275,311.0967 1567.1406,311.0967 Q1567.6455,311.0967 1568.051,311.1531 Q1568.4565,311.2095 1568.8003,311.3008 Q1569.1602,311.4028 1569.4529,311.5291 Q1569.7456,311.6553 1569.9658,311.7627 L1569.9658,313.7017 L1569.7295,313.7017 Q1569.5791,313.5728 1569.3508,313.3955 Q1569.1226,313.2183 1568.8325,313.0464 Q1568.5371,312.8745 1568.1934,312.7563 Q1567.8496,312.6382 1567.4575,312.6382 Q1567.0225,312.6382 1566.6304,312.7751 Q1566.2383,312.9121 1565.9053,313.229 Q1565.5884,313.5352 1565.3923,314.04 Q1565.1963,314.5449 1565.1963,315.2646 Q1565.1963,316.0166 1565.4084,316.5215 Q1565.6206,317.0264 1565.9429,317.3164 Q1566.2705,317.6118 1566.6733,317.738 Q1567.0762,317.8643 1567.4683,317.8643 Q1567.8442,317.8643 1568.2122,317.7515 Q1568.5801,317.6387 1568.8916,317.4453 Q1569.1548,317.2896 1569.3804,317.1123 Q1569.606,316.9351 1569.751,316.8062 L1569.9658,316.8062 L1569.9658,318.7183 Q1569.665,318.8525 1569.3911,318.9707 Q1569.1172,319.0889 1568.8164,319.1748 Q1568.4243,319.2876 1568.0806,319.3467 Q1567.7368,319.4058 1567.1353,319.4058 Z " fill="#000000"/><text fill="#FFFFFF" font-family="Verdana" font-size="11" lengthAdjust="spacing" textLength="97" x="1583" y="319.3748">VideoComponent</text><line style="stroke:#1B1B1B;stroke-width:1.5;" x1="1493" x2="1745" y1="328" y2="328"/><line style="stroke:#1B1B1B;stroke-width:1.5;" x1="1493" x2="1745" y1="336" y2="336"/><rect fill="#F24D5C" height="6" style="stroke:#C82930;stroke-width:1.0;" width="6" x="1500" y="344"/><text fill="#AAAAAA" font-family="sans-serif" font-size="11" lengthAdjust="spacing" textLength="231" x="1509" y="350.6348">convertToEmbeddedURL(url: string): string</text><!--MD5=[e24719c9bee2a46e4c50d47e5395df69]
class TodoComponent--><rect codeLine="38" fill="#2E2E2E" filter="url(#fuymq1y6f2qip)" height="42" id="TodoComponent" style="stroke:#1B1B1B;stroke-width:1.5;" width="119" x="1022.5" y="308.5"/><ellipse cx="1034.5" cy="321.5" fill="#BB6600" rx="8" ry="8" style="stroke:#1B1B1B;stroke-width:1.0;"/><path d="M1034.6353,325.9058 Q1033.7437,325.9058 1032.989,325.6426 Q1032.2344,325.3794 1031.6919,324.8584 Q1031.1494,324.3374 1030.8513,323.5586 Q1030.5532,322.7798 1030.5532,321.7593 Q1030.5532,320.8086 1030.8379,320.0352 Q1031.1226,319.2617 1031.665,318.7085 Q1032.186,318.1768 1032.9568,317.8867 Q1033.7275,317.5967 1034.6406,317.5967 Q1035.1455,317.5967 1035.551,317.6531 Q1035.9565,317.7095 1036.3003,317.8008 Q1036.6602,317.9028 1036.9529,318.0291 Q1037.2456,318.1553 1037.4658,318.2627 L1037.4658,320.2017 L1037.2295,320.2017 Q1037.0791,320.0728 1036.8508,319.8955 Q1036.6226,319.7183 1036.3325,319.5464 Q1036.0371,319.3745 1035.6934,319.2563 Q1035.3496,319.1382 1034.9575,319.1382 Q1034.5225,319.1382 1034.1304,319.2751 Q1033.7383,319.4121 1033.4053,319.729 Q1033.0884,320.0352 1032.8923,320.54 Q1032.6963,321.0449 1032.6963,321.7646 Q1032.6963,322.5166 1032.9084,323.0215 Q1033.1206,323.5264 1033.4429,323.8164 Q1033.7705,324.1118 1034.1733,324.238 Q1034.5762,324.3643 1034.9683,324.3643 Q1035.3442,324.3643 1035.7122,324.2515 Q1036.0801,324.1387 1036.3916,323.9453 Q1036.6548,323.7896 1036.8804,323.6123 Q1037.106,323.4351 1037.251,323.3062 L1037.4658,323.3062 L1037.4658,325.2183 Q1037.165,325.3525 1036.8911,325.4707 Q1036.6172,325.5889 1036.3164,325.6748 Q1035.9243,325.7876 1035.5806,325.8467 Q1035.2368,325.9058 1034.6353,325.9058 Z " fill="#000000"/><text fill="#FFFFFF" font-family="Verdana" font-size="11" lengthAdjust="spacing" textLength="93" x="1045.5" y="325.8748">TodoComponent</text><line style="stroke:#1B1B1B;stroke-width:1.5;" x1="1023.5" x2="1140.5" y1="334.5" y2="334.5"/><line style="stroke:#1B1B1B;stroke-width:1.5;" x1="1023.5" x2="1140.5" y1="342.5" y2="342.5"/><!--MD5=[4c7ef9db262b3cdbea95a93c67ad5307]
class NoteComponent--><rect codeLine="39" fill="#2E2E2E" filter="url(#fuymq1y6f2qip)" height="42" id="NoteComponent" style="stroke:#1B1B1B;stroke-width:1.5;" width="117" x="1176.5" y="308.5"/><ellipse cx="1188.5" cy="321.5" fill="#BB6600" rx="8" ry="8" style="stroke:#1B1B1B;stroke-width:1.0;"/><path d="M1188.6353,325.9058 Q1187.7437,325.9058 1186.989,325.6426 Q1186.2344,325.3794 1185.6919,324.8584 Q1185.1494,324.3374 1184.8513,323.5586 Q1184.5532,322.7798 1184.5532,321.7593 Q1184.5532,320.8086 1184.8379,320.0352 Q1185.1226,319.2617 1185.665,318.7085 Q1186.186,318.1768 1186.9568,317.8867 Q1187.7275,317.5967 1188.6406,317.5967 Q1189.1455,317.5967 1189.551,317.6531 Q1189.9565,317.7095 1190.3003,317.8008 Q1190.6602,317.9028 1190.9529,318.0291 Q1191.2456,318.1553 1191.4658,318.2627 L1191.4658,320.2017 L1191.2295,320.2017 Q1191.0791,320.0728 1190.8508,319.8955 Q1190.6226,319.7183 1190.3325,319.5464 Q1190.0371,319.3745 1189.6934,319.2563 Q1189.3496,319.1382 1188.9575,319.1382 Q1188.5225,319.1382 1188.1304,319.2751 Q1187.7383,319.4121 1187.4053,319.729 Q1187.0884,320.0352 1186.8923,320.54 Q1186.6963,321.0449 1186.6963,321.7646 Q1186.6963,322.5166 1186.9084,323.0215 Q1187.1206,323.5264 1187.4429,323.8164 Q1187.7705,324.1118 1188.1733,324.238 Q1188.5762,324.3643 1188.9683,324.3643 Q1189.3442,324.3643 1189.7122,324.2515 Q1190.0801,324.1387 1190.3916,323.9453 Q1190.6548,323.7896 1190.8804,323.6123 Q1191.106,323.4351 1191.251,323.3062 L1191.4658,323.3062 L1191.4658,325.2183 Q1191.165,325.3525 1190.8911,325.4707 Q1190.6172,325.5889 1190.3164,325.6748 Q1189.9243,325.7876 1189.5806,325.8467 Q1189.2368,325.9058 1188.6353,325.9058 Z " fill="#000000"/><text fill="#FFFFFF" font-family="Verdana" font-size="11" lengthAdjust="spacing" textLength="91" x="1199.5" y="325.8748">NoteComponent</text><line style="stroke:#1B1B1B;stroke-width:1.5;" x1="1177.5" x2="1292.5" y1="334.5" y2="334.5"/><line style="stroke:#1B1B1B;stroke-width:1.5;" x1="1177.5" x2="1292.5" y1="342.5" y2="342.5"/><!--MD5=[2ef76b0ddb2775e9b53b31b61ce34193]
class ImageComponent--><rect codeLine="40" fill="#2E2E2E" filter="url(#fuymq1y6f2qip)" height="42" id="ImageComponent" style="stroke:#1B1B1B;stroke-width:1.5;" width="128" x="1329" y="308.5"/><ellipse cx="1341" cy="321.5" fill="#BB6600" rx="8" ry="8" style="stroke:#1B1B1B;stroke-width:1.0;"/><path d="M1341.1353,325.9058 Q1340.2437,325.9058 1339.489,325.6426 Q1338.7344,325.3794 1338.1919,324.8584 Q1337.6494,324.3374 1337.3513,323.5586 Q1337.0532,322.7798 1337.0532,321.7593 Q1337.0532,320.8086 1337.3379,320.0352 Q1337.6226,319.2617 1338.165,318.7085 Q1338.686,318.1768 1339.4568,317.8867 Q1340.2275,317.5967 1341.1406,317.5967 Q1341.6455,317.5967 1342.051,317.6531 Q1342.4565,317.7095 1342.8003,317.8008 Q1343.1602,317.9028 1343.4529,318.0291 Q1343.7456,318.1553 1343.9658,318.2627 L1343.9658,320.2017 L1343.7295,320.2017 Q1343.5791,320.0728 1343.3508,319.8955 Q1343.1226,319.7183 1342.8325,319.5464 Q1342.5371,319.3745 1342.1934,319.2563 Q1341.8496,319.1382 1341.4575,319.1382 Q1341.0225,319.1382 1340.6304,319.2751 Q1340.2383,319.4121 1339.9053,319.729 Q1339.5884,320.0352 1339.3923,320.54 Q1339.1963,321.0449 1339.1963,321.7646 Q1339.1963,322.5166 1339.4084,323.0215 Q1339.6206,323.5264 1339.9429,323.8164 Q1340.2705,324.1118 1340.6733,324.238 Q1341.0762,324.3643 1341.4683,324.3643 Q1341.8442,324.3643 1342.2122,324.2515 Q1342.5801,324.1387 1342.8916,323.9453 Q1343.1548,323.7896 1343.3804,323.6123 Q1343.606,323.4351 1343.751,323.3062 L1343.9658,323.3062 L1343.9658,325.2183 Q1343.665,325.3525 1343.3911,325.4707 Q1343.1172,325.5889 1342.8164,325.6748 Q1342.4243,325.7876 1342.0806,325.8467 Q1341.7368,325.9058 1341.1353,325.9058 Z " fill="#000000"/><text fill="#FFFFFF" font-family="Verdana" font-size="11" lengthAdjust="spacing" textLength="102" x="1352" y="325.8748">ImageComponent</text><line style="stroke:#1B1B1B;stroke-width:1.5;" x1="1330" x2="1456" y1="334.5" y2="334.5"/><line style="stroke:#1B1B1B;stroke-width:1.5;" x1="1330" x2="1456" y1="342.5" y2="342.5"/><!--MD5=[335f4d9be48430461c68bf6d6fdba145]
class App--><rect codeLine="41" fill="#2E2E2E" filter="url(#fuymq1y6f2qip)" height="54.9551" id="App" style="stroke:#1B1B1B;stroke-width:1.5;" width="199" x="1208.5" y="13.5"/><ellipse cx="1293.5" cy="26.5" fill="#BB6600" rx="8" ry="8" style="stroke:#1B1B1B;stroke-width:1.0;"/><path d="M1293.6353,30.9058 Q1292.7437,30.9058 1291.989,30.6426 Q1291.2344,30.3794 1290.6919,29.8584 Q1290.1494,29.3374 1289.8513,28.5586 Q1289.5532,27.7798 1289.5532,26.7593 Q1289.5532,25.8086 1289.8379,25.0352 Q1290.1226,24.2617 1290.665,23.7085 Q1291.186,23.1768 1291.9568,22.8867 Q1292.7275,22.5967 1293.6406,22.5967 Q1294.1455,22.5967 1294.551,22.6531 Q1294.9565,22.7095 1295.3003,22.8008 Q1295.6602,22.9028 1295.9529,23.0291 Q1296.2456,23.1553 1296.4658,23.2627 L1296.4658,25.2017 L1296.2295,25.2017 Q1296.0791,25.0728 1295.8508,24.8955 Q1295.6226,24.7183 1295.3325,24.5464 Q1295.0371,24.3745 1294.6934,24.2563 Q1294.3496,24.1382 1293.9575,24.1382 Q1293.5225,24.1382 1293.1304,24.2751 Q1292.7383,24.4121 1292.4053,24.729 Q1292.0884,25.0352 1291.8923,25.54 Q1291.6963,26.0449 1291.6963,26.7646 Q1291.6963,27.5166 1291.9084,28.0215 Q1292.1206,28.5264 1292.4429,28.8164 Q1292.7705,29.1118 1293.1733,29.238 Q1293.5762,29.3643 1293.9683,29.3643 Q1294.3442,29.3643 1294.7122,29.2515 Q1295.0801,29.1387 1295.3916,28.9453 Q1295.6548,28.7896 1295.8804,28.6123 Q1296.106,28.4351 1296.251,28.3062 L1296.4658,28.3062 L1296.4658,30.2183 Q1296.165,30.3525 1295.8911,30.4707 Q1295.6172,30.5889 1295.3164,30.6748 Q1294.9243,30.7876 1294.5806,30.8467 Q1294.2368,30.9058 1293.6353,30.9058 Z " fill="#000000"/><text fill="#FFFFFF" font-family="Verdana" font-size="11" lengthAdjust="spacing" textLength="22" x="1309.5" y="30.8748">App</text><line style="stroke:#1B1B1B;stroke-width:1.5;" x1="1209.5" x2="1406.5" y1="39.5" y2="39.5"/><rect fill="none" height="6" style="stroke:#C82930;stroke-width:1.0;" width="6" x="1216.5" y="47.5"/><text fill="#AAAAAA" font-family="sans-serif" font-size="11" lengthAdjust="spacing" textLength="176" x="1225.5" y="54.1348">page: Component &amp; Composable</text><line style="stroke:#1B1B1B;stroke-width:1.5;" x1="1209.5" x2="1406.5" y1="60.4551" y2="60.4551"/><!--MD5=[5138e1726e9722808680e9cc81e45b35]
reverse link Component to BaseComponent--><path d="M1007.01,90.3 C1020.02,104.91 1034.15,120.77 1046.6,134.75 " fill="none" id="Component-backto-BaseComponent" style="stroke:#FFFFFF;stroke-width:1.0;stroke-dasharray:7.0,7.0;"/><polygon fill="none" points="1001.55,94.68,993.47,75.09,1012,85.37,1001.55,94.68" style="stroke:#FFFFFF;stroke-width:1.0;"/><!--MD5=[c39c3490e5aa4b0d319f3c28b36aac2e]
reverse link Component to SectionContainer--><path d="M885.14,84.65 C846.75,105.41 801.79,129.73 768.32,147.82 " fill="none" id="Component-backto-SectionContainer" style="stroke:#FFFFFF;stroke-width:1.0;"/><polygon fill="none" points="881.89,78.45,902.81,75.09,888.55,90.76,881.89,78.45" style="stroke:#FFFFFF;stroke-width:1.0;"/><!--MD5=[3a9df5a00790f8351a269bf9e437b4fd]
reverse link Composable to SectionContainer--><path d="M562.24,79.22 C598.19,101.07 642.79,128.18 675.22,147.89 " fill="none" id="Composable-backto-SectionContainer" style="stroke:#FFFFFF;stroke-width:1.0;"/><polygon fill="none" points="558.31,85.02,544.85,68.65,565.58,73.06,558.31,85.02" style="stroke:#FFFFFF;stroke-width:1.0;"/><!--MD5=[38c3067405c9cda2a66805e4f66163d5]
reverse link BaseComponent to PageItemComponent--><path d="M1001.19,226.64 C968.58,246.87 931.5,269.87 900.84,288.89 " fill="none" id="BaseComponent-backto-PageItemComponent" style="stroke:#FFFFFF;stroke-width:1.0;"/><polygon fill="none" points="997.58,220.64,1018.27,216.04,1004.96,232.53,997.58,220.64" style="stroke:#FFFFFF;stroke-width:1.0;"/><!--MD5=[b697d3d8c1575e7031f06f637f97308a]
reverse link SectionContainer to PageItemComponent--><path d="M752.23,219.31 C769.16,241.11 789.61,267.46 806.19,288.81 " fill="none" id="SectionContainer-backto-PageItemComponent" style="stroke:#FFFFFF;stroke-width:1.0;stroke-dasharray:7.0,7.0;"/><polygon fill="none" points="746.56,223.42,739.82,203.32,757.62,214.83,746.56,223.42" style="stroke:#FFFFFF;stroke-width:1.0;"/><!--MD5=[d12126b444a36097ccaa28cd1894f2d3]
reverse link BaseComponent to PageComponent--><path d="M887.78,220.7 C818.77,237.11 740.69,256.51 670,276 C648.53,281.92 625.66,288.7 603.92,295.37 " fill="none" id="BaseComponent-backto-PageComponent" style="stroke:#FFFFFF;stroke-width:1.0;"/><polygon fill="none" points="886.38,213.83,907.46,216.03,889.61,227.45,886.38,213.83" style="stroke:#FFFFFF;stroke-width:1.0;"/><!--MD5=[3f57782c9d012a90413e5f7a0620cd54]
reverse link Composable to PageComponent--><path d="M501,88.83 C501,146.86 501,244.3 501,295.22 " fill="none" id="Composable-backto-PageComponent" style="stroke:#FFFFFF;stroke-width:1.0;stroke-dasharray:7.0,7.0;"/><polygon fill="none" points="494,88.7,501,68.7,508,88.7,494,88.7" style="stroke:#FFFFFF;stroke-width:1.0;"/><!--MD5=[38c76dcf1710a99e22dc8169eff82ceb]
reverse link BaseComponent to InputDialog--><path d="M884.41,216.22 C638.7,252.58 569.34,227.58 333,276 C327.19,277.19 321.29,278.49 315.36,279.89 " fill="none" id="BaseComponent-backto-InputDialog" style="stroke:#FFFFFF;stroke-width:1.0;"/><polygon fill="none" points="883.55,209.27,904.38,213.19,885.65,223.11,883.55,209.27" style="stroke:#FFFFFF;stroke-width:1.0;"/><!--MD5=[c916b82a59b6124f880d36f4575413b9]
reverse link Composable to InputDialog--><path d="M453.98,81.62 C393.96,132.2 289.94,219.85 223.35,275.96 " fill="none" id="Composable-backto-InputDialog" style="stroke:#FFFFFF;stroke-width:1.0;stroke-dasharray:7.0,7.0;"/><polygon fill="none" points="449.51,76.23,469.32,68.7,458.54,86.94,449.51,76.23" style="stroke:#FFFFFF;stroke-width:1.0;"/><!--MD5=[46d660da38c5c95ffda6b06b7e7d3ba2]
reverse link BaseComponent to VideoComponent--><path d="M1273.95,220.95 C1338.25,236.94 1410.08,256 1475,276 C1499.92,283.68 1526.87,293.17 1550.63,301.96 " fill="none" id="BaseComponent-backto-VideoComponent" style="stroke:#FFFFFF;stroke-width:1.0;"/><polygon fill="none" points="1271.99,227.68,1254.25,216.09,1275.35,214.09,1271.99,227.68" style="stroke:#FFFFFF;stroke-width:1.0;"/><!--MD5=[b5ec4a4f46e91018b579491d2f3e7f4e]
reverse link BaseComponent to TodoComponent--><path d="M1082,236.17 C1082,261.71 1082,289.83 1082,308.25 " fill="none" id="BaseComponent-backto-TodoComponent" style="stroke:#FFFFFF;stroke-width:1.0;"/><polygon fill="none" points="1075,236.04,1082,216.04,1089,236.04,1075,236.04" style="stroke:#FFFFFF;stroke-width:1.0;"/><!--MD5=[e265c7727f9531c564615a99e1f247a0]
reverse link BaseComponent to NoteComponent--><path d="M1136.36,230.5 C1163.49,257.46 1194.69,288.46 1214.61,308.25 " fill="none" id="BaseComponent-backto-NoteComponent" style="stroke:#FFFFFF;stroke-width:1.0;"/><polygon fill="none" points="1131.05,235.1,1121.8,216.04,1140.92,225.17,1131.05,235.1" style="stroke:#FFFFFF;stroke-width:1.0;"/><!--MD5=[29b9bf4036036b28cde1f0225d581220]
reverse link BaseComponent to ImageComponent--><path d="M1200.99,223.93 C1236.91,239.38 1276.06,257.38 1311,276 C1329.2,285.7 1348.68,298.08 1364.08,308.38 " fill="none" id="BaseComponent-backto-ImageComponent" style="stroke:#FFFFFF;stroke-width:1.0;"/><polygon fill="none" points="1198.21,230.36,1182.54,216.09,1203.69,217.47,1198.21,230.36" style="stroke:#FFFFFF;stroke-width:1.0;"/><!--MD5=[347bac0e6cdd95201cb643cec0bc961d]
@startuml
!define DARKORANGE
!include https://raw.githubusercontent.com/Drakemor/RedDress-PlantUML/master/style.puml

interface Component {
    +attachTo(parent: HTMLElement, position?: InsertPosition | undefined): void
    +removeFrom(parent: HTMLElement): void
}
class BaseComponent<T extends HTMLElement> implements Component {
    #element: T
    +attachTo(parent: HTMLElement, position?: InsertPosition): void
    +removeFrom(parent: HTMLElement): void
}
interface Composable {
    +addChild(child: Component): void
}
interface SectionContainer extends Component, Composable {
    +setOnCloseListener(listener: OnCloseListener): void
}
class PageItemComponent extends BaseComponent implements SectionContainer {
    -closeListener?: OnCloseListener | undefined
    +addChild(child: Component): void
    +setOnCloseListener(listener: OnCloseListener): void
}
class PageComponent extends BaseComponent implements Composable {
    -pageItemConstructor: SectionContainerConstructor
    +addChild(section: Component): void
}
class InputDialog extends BaseComponent implements Composable {
    +closeListener?: OnCloseListener | undefined
    +submitListener?: OnSubmitListener | undefined
    +setOnCloseListenr(listener: OnCloseListener): void
    +setOnSubmitListenr(listener: OnSubmitListener): void
    +addChild(child: Component): void
}
class VideoComponent extends BaseComponent {
    -convertToEmbeddedURL(url: string): string
}
class TodoComponent extends BaseComponent
class NoteComponent extends BaseComponent
class ImageComponent extends BaseComponent
class App {
    -page: Component & Composable
}
@enduml

@startuml









skinparam stereotypeCBackgroundColor BB6600



skinparam backgroundColor 777







skinparam circledCharacter {
  radius 8
  fontSize 11
  fontName Verdana
}

skinparam class {
    backgroundColor 2e2e2e
  borderColor 1b1b1b
    fontColor fff
  fontName Verdana
  fontSize 11
  stereotypeFontColor aaa
  stereotypeFontSize 11
    arrowColor fff
  arrowFontName Verdana
  arrowFontColor bbb
  arrowFontSize 11

  attributeFontColor aaa
  attributeFontSize 11
  attributeIconSize 11
}


skinparam actor {
    backgroundColor BB6600
  borderColor 662200
    fontColor fff
  fontName Verdana
  fontSize 11
  stereotypeFontColor aaa
  stereotypeFontSize 11
}

skinparam participant {
    backgroundColor 2e2e2e
  borderColor 1b1b1b
    fontColor fff
  fontName Verdana
  fontSize 11
  stereotypeFontColor aaa
  stereotypeFontSize 11
}

skinparam collections {
    backgroundColor 2e2e2e
  borderColor 1b1b1b
    fontColor fff
  fontName Verdana
  fontSize 11
  stereotypeFontColor aaa
  stereotypeFontSize 11
}

skinparam SequenceBox{
    backgroundColor 575757
  borderColor 767676
    fontColor fff
  fontName Verdana
  fontSize 11
  stereotypeFontColor aaa
  stereotypeFontSize 11
}


skinparam interface {
    backgroundColor BB6600
  borderColor 662200
    fontColor fff
  fontName Verdana
  fontSize 11
  stereotypeFontColor aaa
  stereotypeFontSize 11
}

skinparam component {
    backgroundColor 2e2e2e
  borderColor 1b1b1b
    fontColor fff
  fontName Verdana
  fontSize 11
  stereotypeFontColor aaa
  stereotypeFontSize 11
}

skinparam node {
    backgroundColor 2e2e2e
  borderColor 1b1b1b
    fontColor fff
  fontName Verdana
  fontSize 11
  stereotypeFontColor aaa
  stereotypeFontSize 11
}

skinparam database {
    backgroundColor 2e2e2e
  borderColor 1b1b1b
    fontColor fff
  fontName Verdana
  fontSize 11
  stereotypeFontColor aaa
  stereotypeFontSize 11
}

skinparam queue {
    backgroundColor 2e2e2e
  borderColor 1b1b1b
    fontColor fff
  fontName Verdana
  fontSize 11
  stereotypeFontColor aaa
  stereotypeFontSize 11
}


skinparam usecase {
    backgroundColor 2e2e2e
  borderColor 1b1b1b
    fontColor fff
  fontName Verdana
  fontSize 11
  stereotypeFontColor aaa
  stereotypeFontSize 11
    arrowColor fff
  arrowFontName Verdana
  arrowFontColor bbb
  arrowFontSize 11
}

skinparam activity {
    backgroundColor 2e2e2e
  borderColor 1b1b1b
    fontColor fff
  fontName Verdana
  fontSize 11
  stereotypeFontColor aaa
  stereotypeFontSize 11
    arrowColor fff
  arrowFontName Verdana
  arrowFontColor bbb
  arrowFontSize 11
}

skinparam sequence {
    fontColor fff
  fontName Verdana
  fontSize 11
  stereotypeFontColor aaa
  stereotypeFontSize 11
    arrowColor fff
  arrowFontName Verdana
  arrowFontColor bbb
  arrowFontSize 11

  lifeLineBorderColor BB6600
  lifeLineBackgroundColor 575757
}

skinparam boundary {
    backgroundColor BB6600
  borderColor 662200
    fontColor fff
  fontName Verdana
  fontSize 11
  stereotypeFontColor aaa
  stereotypeFontSize 11
}

skinparam control {
    backgroundColor BB6600
  borderColor 662200
    fontColor fff
  fontName Verdana
  fontSize 11
  stereotypeFontColor aaa
  stereotypeFontSize 11
}

skinparam entity {
    backgroundColor BB6600
  borderColor 662200
    fontColor fff
  fontName Verdana
  fontSize 11
  stereotypeFontColor aaa
  stereotypeFontSize 11
}


skinparam state {
    backgroundColor 2e2e2e
  borderColor 1b1b1b
    fontColor fff
  fontName Verdana
  fontSize 11
  stereotypeFontColor aaa
  stereotypeFontSize 11
    arrowColor fff
  arrowFontName Verdana
  arrowFontColor bbb
  arrowFontSize 11
  startColor BB6600
  endColor 662200
}


skinparam object {
    backgroundColor 2e2e2e
  borderColor 1b1b1b
    fontColor fff
  fontName Verdana
  fontSize 11
  stereotypeFontColor aaa
  stereotypeFontSize 11
    arrowColor fff
  arrowFontName Verdana
  arrowFontColor bbb
  arrowFontSize 11
}


skinparam note {
    backgroundColor BB6600
  borderColor 662200
    fontColor fff
  fontName Verdana
  fontSize 11
  stereotypeFontColor aaa
  stereotypeFontSize 11
}

skinparam cloud {
    backgroundColor 2e2e2e
  borderColor 1b1b1b
    fontColor fff
  fontName Verdana
  fontSize 11
  stereotypeFontColor aaa
  stereotypeFontSize 11
    arrowColor fff
  arrowFontName Verdana
  arrowFontColor bbb
  arrowFontSize 11
}

skinparam rectangle {
    backgroundColor 2e2e2e
  borderColor 1b1b1b
    fontColor fff
  fontName Verdana
  fontSize 11
  stereotypeFontColor aaa
  stereotypeFontSize 11
}

skinparam storage {
    backgroundColor 2e2e2e
  borderColor 1b1b1b
    fontColor fff
  fontName Verdana
  fontSize 11
  stereotypeFontColor aaa
  stereotypeFontSize 11
}


interface Component {
    +attachTo(parent: HTMLElement, position?: InsertPosition | undefined): void
    +removeFrom(parent: HTMLElement): void
}
class BaseComponent<T extends HTMLElement> implements Component {
    #element: T
    +attachTo(parent: HTMLElement, position?: InsertPosition): void
    +removeFrom(parent: HTMLElement): void
}
interface Composable {
    +addChild(child: Component): void
}
interface SectionContainer extends Component, Composable {
    +setOnCloseListener(listener: OnCloseListener): void
}
class PageItemComponent extends BaseComponent implements SectionContainer {
    -closeListener?: OnCloseListener | undefined
    +addChild(child: Component): void
    +setOnCloseListener(listener: OnCloseListener): void
}
class PageComponent extends BaseComponent implements Composable {
    -pageItemConstructor: SectionContainerConstructor
    +addChild(section: Component): void
}
class InputDialog extends BaseComponent implements Composable {
    +closeListener?: OnCloseListener | undefined
    +submitListener?: OnSubmitListener | undefined
    +setOnCloseListenr(listener: OnCloseListener): void
    +setOnSubmitListenr(listener: OnSubmitListener): void
    +addChild(child: Component): void
}
class VideoComponent extends BaseComponent {
    -convertToEmbeddedURL(url: string): string
}
class TodoComponent extends BaseComponent
class NoteComponent extends BaseComponent
class ImageComponent extends BaseComponent
class App {
    -page: Component & Composable
}
@enduml

PlantUML version 1.2021.00(Sun Jan 10 19:25:05 KST 2021)
(GPL source distribution)
Java Runtime: OpenJDK Runtime Environment
JVM: OpenJDK 64-Bit Server VM
Default Encoding: UTF-8
Language: en
Country: AU
--></g></svg>